<svg width="60" height="60" xmlns="http://www.w3.org/2000/svg">
    <g>
        <path d="m19,38" opacity="NaN" stroke="#fff" fill="black"/>
        <path stroke-width="1" stroke="azure" d="m48.01797,24.73905l0,-6.11062l-0.00261,0c-0.00261,-7.54233 -7.39826,-13.6551 -16.52348,-13.6551s-16.52348,6.11493 -16.52348,13.65726l0,0l0,6.10847l-5.97652,0l0,26.23427l45,0l0,-26.23427l-5.97391,0zm-27.82957,-6.10847c0,0 0,0 0,0c0,-5.15328 5.0713,-9.3449 11.30348,-9.3449c6.23739,0 11.3087,4.19162 11.3087,9.34274c0,0 0,0 0,0l0,6.11062l-22.61217,0l0,-6.10847z" fill="lightslategray"/>
    </g>

</svg>
