<svg width="60" height="60" xmlns="http://www.w3.org/2000/svg">
    <g>
        <path d="m19,38" opacity="NaN" stroke="#fff" fill="black"/>
        <path d="m30.00485,7.15412c-13.80721,0 -25,10.07248 -25,22.49921c0,4.24575 1.32323,8.21362 3.59997,11.60107l-3.59997,9.47251l10.02317,-3.08666c4.17677,2.82014 9.35184,4.51387 14.97683,4.51387c13.80724,0 25.00001,-10.07412 25.00001,-22.50079s-11.19276,-22.49921 -25.00001,-22.49921zm1.75375,35.22179l-3.51635,0l0,-4.04792l3.51635,0l0,4.04792zm0,-8.37056l0,1.33896l-3.51635,0l0,-1.64796c0,-4.97329 4.7163,-5.76129 4.7163,-9.29263c0,-1.61202 -1.19995,-2.84798 -2.77317,-2.84798c-1.62875,0 -3.05893,1.44035 -3.05893,1.44035l-2.00034,-2.98531c0,0 1.97173,-2.47029 5.37331,-2.47029c3.23228,0 6.23227,2.40162 6.23227,6.44795c0.00171,5.66323 -4.9731,6.31389 -4.9731,10.01689l0,0z" stroke="#000" fill="azure"/>
    </g>

</svg>
