<svg width="60" height="60" xmlns="http://www.w3.org/2000/svg">
    <g>
        <path stroke-width="2" fill="lightslategray" d="m38.86977,25.72905l-4.46783,0l0,-6.10847c0,0 0,0 0,-0.00216c0,-5.15112 3.93388,-9.34274 8.76577,-9.34274c4.83594,0 8.7678,4.19162 8.7678,9.34274c0,0 0,0 0,0l0,6.11062l4.04512,0l0,-6.11062l-0.00202,0c-0.00202,-7.54233 -5.73598,-13.6551 -12.81089,-13.6551s-12.81089,6.11493 -12.81089,13.65726l0,6.10847l-26.3762,0l0,26.23427l34.88915,0l0,-26.23427l-0.00001,0z" stroke="azure"/>
        <path stroke-width="1" fill="gray" stroke="gray" opacity="NaN" d="m19,38"/>
    </g>
</svg>
