<svg width="60" height="60" xmlns="http://www.w3.org/2000/svg">
    <g id="Layer_1">
        <title>Layer 1</title>
        <path stroke="red" id="svg_1" d="m55.43236,45.74767l-7.02416,-11.62592c-2.11776,-3.50402 -5.58164,-9.24038 -7.69941,-12.74508l-7.0235,-11.62521c-2.11986,-3.50608 -5.58374,-3.50608 -7.7008,0l-7.02208,11.62521c-2.11776,3.5047 -5.58375,9.2424 -7.70081,12.74508l-7.0228,11.62592c-2.11775,3.5074 -0.38439,6.37422 3.85041,6.37422l43.48854,0c4.23904,0 5.97025,-2.86682 3.85461,-6.37422l0,0zm-23.59178,1.79978l-4.16601,0l0,-3.82262l4.16601,0l0,3.82262zm-0.20071,-6.63927l-3.76104,0l-0.37377,-16.35558l4.47522,0l-0.34042,16.35558l0,0z" fill="coral"/>
    </g>

</svg>
